# 3ds Max Wavefront OBJ Exporter v0.97b - (c)2007 guruware
# File Created: 26.03.2011 18:20:48

mtllib scene.mtl

#
# object Box06
#

v  -14.9165 -0.0157 4.6105
v  -18.9099 -0.0242 4.3815
v  -18.4520 -0.0358 -3.6053
v  -14.4585 -0.0273 -3.3764
v  -14.9206 1.9843 4.6073
v  -14.4627 1.9727 -3.3795
v  -18.4561 1.9642 -3.6085
v  -18.9140 1.9757 4.3784
# 8 vertices

vn 0.0021 -1.0000 0.0016
vn -0.0021 1.0000 -0.0016
vn 0.9984 0.0021 0.0572
vn 0.0572 -0.0014 -0.9984
vn -0.9984 -0.0021 -0.0572
vn -0.0572 0.0014 0.9984
# 6 vertex normals

vt 1.0000 0.0000 0.0000
vt 1.0000 1.0000 0.0000
vt 0.0000 1.0000 0.0000
vt 0.0000 0.0000 0.0000
# 4 texture coords

g Box06
usemtl wire_135006006
s 2
f 1/1/1 2/2/1 3/3/1 
f 3/3/1 4/4/1 1/1/1 
s 4
f 5/4/2 6/1/2 7/2/2 
f 7/2/2 8/3/2 5/4/2 
s 8
f 1/4/3 4/1/3 6/2/3 
f 6/2/3 5/3/3 1/4/3 
s 16
f 4/4/4 3/1/4 7/2/4 
f 7/2/4 6/3/4 4/4/4 
s 32
f 3/4/5 2/1/5 8/2/5 
f 8/2/5 7/3/5 3/4/5 
s 64
f 2/4/6 1/1/6 5/2/6 
f 5/2/6 8/3/6 2/4/6 
# 12 faces
